<svg width="286" height="165" viewBox="0 0 286 165" fill="none" xmlns="http://www.w3.org/2000/svg">
<mask id="mask0_81_18792" style="mask-type:alpha" maskUnits="userSpaceOnUse" x="0" y="0" width="286" height="165">
<path d="M61 147.342V82.32C61 76.2528 56.0831 71.3425 50 71.3425H16.25C7.27537 71.3425 0 64.0671 0 55.0925C0 46.1178 7.27537 38.8425 16.25 38.8425H127.601C137.363 38.8427 144.129 48.584 140.719 57.7321C139.438 61.168 135.707 68.7327 131.279 77.8757C126.776 87.1749 121.389 98.425 116.576 109.599C111.747 120.813 107.573 131.771 105.427 140.515C104.349 144.906 103.841 148.509 103.923 151.2C104.008 154.014 104.702 154.968 105.032 155.238C105.827 155.887 106.455 155.985 107.424 155.675C108.696 155.268 110.438 154.125 112.643 151.937C117.022 147.592 121.831 140.587 126.963 132.876C131.964 125.361 137.242 117.222 142.318 111.301C144.857 108.34 147.541 105.696 150.32 103.938C153.103 102.178 156.478 101.009 160.052 101.983C163.043 102.798 164.731 105.113 165.65 107.33C166.552 109.503 166.963 112.115 167.164 114.718C167.566 119.919 167.213 126.586 167.044 132.724C166.869 139.107 166.885 145.006 167.809 149.454C168.765 154.057 170.292 155.419 171.806 155.73C172.82 155.938 174.029 155.704 175.564 154.708C177.126 153.694 178.698 152.088 180.154 150.215C181.588 148.371 182.777 146.441 183.614 144.951C184.03 144.212 184.351 143.595 184.565 143.171C184.672 142.959 184.752 142.795 184.803 142.689C184.828 142.636 184.846 142.598 184.856 142.575C184.862 142.564 184.866 142.556 184.867 142.552L184.868 142.55L184.931 142.415L185.006 142.28L188.5 144.227C185.168 142.37 185.014 142.284 185.007 142.279L185.008 142.276C185.009 142.273 185.012 142.269 185.015 142.263C185.021 142.252 185.031 142.235 185.043 142.214C185.067 142.17 185.104 142.105 185.151 142.019C185.247 141.847 185.389 141.591 185.575 141.258C185.947 140.59 186.494 139.611 187.191 138.36C188.587 135.858 190.587 132.272 193.007 127.935C197.847 119.263 204.369 107.588 211.092 95.5798C224.509 71.6147 238.808 46.1799 242.077 40.7731C243.22 38.8828 245.679 38.2767 247.569 39.4196C249.46 40.5626 250.066 43.0214 248.923 44.9118C245.744 50.1686 231.543 75.426 218.072 99.487C211.351 111.492 204.832 123.164 199.992 131.835C197.573 136.17 195.573 139.755 194.179 142.256C193.481 143.506 192.935 144.486 192.563 145.153C192.378 145.486 192.235 145.742 192.14 145.914C192.109 145.968 192.082 146.014 192.062 146.051C192.047 146.081 192.032 146.116 192.014 146.154C191.943 146.302 191.84 146.509 191.71 146.768C191.449 147.286 191.072 148.012 190.589 148.871C189.629 150.578 188.224 152.869 186.471 155.125C184.74 157.351 182.53 159.723 179.92 161.418C177.283 163.129 173.93 164.334 170.194 163.566C163.709 162.233 161.084 156.415 159.976 151.081C158.835 145.591 158.874 138.795 159.047 132.505C159.226 125.97 159.547 119.986 159.188 115.336C159.008 113.014 158.678 111.4 158.262 110.396C158.084 109.967 157.942 109.769 157.867 109.685C157.297 109.558 156.301 109.622 154.596 110.7C152.804 111.833 150.73 113.783 148.393 116.508C143.717 121.962 138.77 129.573 133.623 137.307C128.607 144.845 123.344 152.588 118.276 157.616C115.758 160.115 112.932 162.313 109.861 163.296C106.487 164.375 102.998 163.909 99.9678 161.431C96.9369 158.953 96.0368 155.06 95.9268 151.443C95.813 147.703 96.5068 143.294 97.6572 138.608C99.9672 129.199 104.357 117.746 109.229 106.435C114.117 95.0854 119.571 83.6975 124.079 74.3884C128.663 64.923 132.116 57.9083 133.223 54.9382C134.684 51.0176 131.785 46.8427 127.601 46.8425H16.25C11.6937 46.8425 8 50.5361 8 55.0925C8 59.6488 11.6937 63.3425 16.25 63.3425H50C60.4855 63.3425 69 71.8187 69 82.32V147.342C69 151.866 69.7891 154.718 70.4482 156.319C70.7798 157.124 71.087 157.634 71.2646 157.896C71.3538 158.028 71.4122 158.099 71.4268 158.117C71.4341 158.126 71.4309 158.121 71.415 158.103C71.4071 158.095 71.396 158.083 71.3818 158.068C71.3747 158.061 71.3662 158.053 71.3574 158.044C71.353 158.039 71.3486 158.034 71.3438 158.029C71.3414 158.027 71.3384 158.025 71.3359 158.022L71.4707 158.164C72.889 159.734 72.8413 162.157 71.3281 163.671C69.766 165.233 67.234 165.233 65.6719 163.671L68.5 160.842C65.7944 163.548 65.675 163.663 65.668 163.667L65.6631 163.663C65.6604 163.66 65.658 163.657 65.6553 163.654C65.6497 163.648 65.6437 163.643 65.6377 163.636C65.6256 163.624 65.6124 163.611 65.5986 163.596C65.5711 163.568 65.5404 163.535 65.5068 163.498C65.4397 163.424 65.3609 163.335 65.2725 163.228C65.0956 163.015 64.8804 162.735 64.6416 162.383C64.1631 161.676 63.5951 160.685 63.0518 159.366C61.961 156.717 61 152.819 61 147.342Z" fill="white"/>
<path d="M264.074 0.377514C264.135 -0.125836 264.865 -0.125839 264.926 0.377512C266.222 11.1387 274.704 19.6209 285.465 20.9168C285.968 20.9774 285.968 21.7076 285.465 21.7682C274.704 23.0641 266.222 31.5462 264.926 42.3074C264.865 42.8108 264.135 42.8108 264.074 42.3074C262.778 31.5462 254.296 23.0641 243.535 21.7682C243.032 21.7076 243.032 20.9774 243.535 20.9168C254.296 19.6209 262.778 11.1387 264.074 0.377514Z" fill="white"/>
</mask>
<g mask="url(#mask0_81_18792)">
<g filter="url(#filter0_f_81_18792)">
<path d="M-4.28613 -14H54.4282V178H-4.28613V-14Z" fill="#EA70C5"/>
<path d="M54.4287 -14H113.143V178H54.4287V-14Z" fill="#F87676"/>
<path d="M113.143 -14H171.857V178H113.143V-14Z" fill="#EEC970"/>
<path d="M171.857 -14H230.572V178H171.857V-14Z" fill="#B0DA9F"/>
<path d="M230.571 -14H289.286V178H230.571V-14Z" fill="#6CA2E6"/>
</g>
</g>
<defs>
<filter id="filter0_f_81_18792" x="-103" y="-54" width="491" height="272" filterUnits="userSpaceOnUse" color-interpolation-filters="sRGB">
<feFlood flood-opacity="0" result="BackgroundImageFix"/>
<feBlend mode="normal" in="SourceGraphic" in2="BackgroundImageFix" result="shape"/>
<feGaussianBlur stdDeviation="20" result="effect1_foregroundBlur_81_18792"/>
</filter>
</defs>
</svg>
